<svg width="150" height="50" viewBox="0 0 229 41" fill="none" xmlns="http://www.w3.org/2000/svg">
<path d="M22 5.1V10.75H7.45V19.7H18.6V25.25H7.45V40H0.45V5.1H22ZM43.1637 40.35C39.897 40.35 36.897 39.5833 34.1637 38.05C31.4303 36.5167 29.2637 34.4 27.6637 31.7C26.0637 28.9667 25.2637 25.8833 25.2637 22.45C25.2637 19.05 26.0637 16 27.6637 13.3C29.2637 10.5667 31.4303 8.43333 34.1637 6.9C36.897 5.36667 39.897 4.6 43.1637 4.6C46.4637 4.6 49.4637 5.36667 52.1637 6.9C54.897 8.43333 57.047 10.5667 58.6137 13.3C60.2137 16 61.0137 19.05 61.0137 22.45C61.0137 25.8833 60.2137 28.9667 58.6137 31.7C57.047 34.4 54.897 36.5167 52.1637 38.05C49.4303 39.5833 46.4303 40.35 43.1637 40.35ZM43.1637 34.1C45.2637 34.1 47.1137 33.6333 48.7137 32.7C50.3137 31.7333 51.5637 30.3667 52.4637 28.6C53.3637 26.8333 53.8137 24.7833 53.8137 22.45C53.8137 20.1167 53.3637 18.0833 52.4637 16.35C51.5637 14.5833 50.3137 13.2333 48.7137 12.3C47.1137 11.3667 45.2637 10.9 43.1637 10.9C41.0637 10.9 39.197 11.3667 37.5637 12.3C35.9637 13.2333 34.7137 14.5833 33.8137 16.35C32.9137 18.0833 32.4637 20.1167 32.4637 22.45C32.4637 24.7833 32.9137 26.8333 33.8137 28.6C34.7137 30.3667 35.9637 31.7333 37.5637 32.7C39.197 33.6333 41.0637 34.1 43.1637 34.1ZM82.4215 40.35C79.1548 40.35 76.1548 39.5833 73.4215 38.05C70.6882 36.5167 68.5215 34.4 66.9215 31.7C65.3215 28.9667 64.5215 25.8833 64.5215 22.45C64.5215 19.05 65.3215 16 66.9215 13.3C68.5215 10.5667 70.6882 8.43333 73.4215 6.9C76.1548 5.36667 79.1548 4.6 82.4215 4.6C85.7215 4.6 88.7215 5.36667 91.4215 6.9C94.1548 8.43333 96.3048 10.5667 97.8715 13.3C99.4715 16 100.271 19.05 100.271 22.45C100.271 25.8833 99.4715 28.9667 97.8715 31.7C96.3048 34.4 94.1548 36.5167 91.4215 38.05C88.6882 39.5833 85.6882 40.35 82.4215 40.35ZM82.4215 34.1C84.5215 34.1 86.3715 33.6333 87.9715 32.7C89.5715 31.7333 90.8215 30.3667 91.7215 28.6C92.6215 26.8333 93.0715 24.7833 93.0715 22.45C93.0715 20.1167 92.6215 18.0833 91.7215 16.35C90.8215 14.5833 89.5715 13.2333 87.9715 12.3C86.3715 11.3667 84.5215 10.9 82.4215 10.9C80.3215 10.9 78.4548 11.3667 76.8215 12.3C75.2215 13.2333 73.9715 14.5833 73.0715 16.35C72.1715 18.0833 71.7215 20.1167 71.7215 22.45C71.7215 24.7833 72.1715 26.8333 73.0715 28.6C73.9715 30.3667 75.2215 31.7333 76.8215 32.7C78.4548 33.6333 80.3215 34.1 82.4215 34.1ZM117.679 5.1C121.346 5.1 124.563 5.81667 127.329 7.25C130.129 8.68333 132.279 10.7333 133.779 13.4C135.313 16.0333 136.079 19.1 136.079 22.6C136.079 26.1 135.313 29.1667 133.779 31.8C132.279 34.4 130.129 36.4167 127.329 37.85C124.563 39.2833 121.346 40 117.679 40H105.479V5.1H117.679ZM117.429 34.05C121.096 34.05 123.929 33.05 125.929 31.05C127.929 29.05 128.929 26.2333 128.929 22.6C128.929 18.9667 127.929 16.1333 125.929 14.1C123.929 12.0333 121.096 11 117.429 11H112.479V34.05H117.429Z" fill="#FFC700"/>
<path d="M153.369 40.35C150.936 40.35 148.736 39.9333 146.769 39.1C144.836 38.2667 143.302 37.0667 142.169 35.5C141.036 33.9333 140.452 32.0833 140.419 29.95H147.919C148.019 31.3833 148.519 32.5167 149.419 33.35C150.352 34.1833 151.619 34.6 153.219 34.6C154.852 34.6 156.136 34.2167 157.069 33.45C158.002 32.65 158.469 31.6167 158.469 30.35C158.469 29.3167 158.152 28.4667 157.519 27.8C156.886 27.1333 156.086 26.6167 155.119 26.25C154.186 25.85 152.886 25.4167 151.219 24.95C148.952 24.2833 147.102 23.6333 145.669 23C144.269 22.3333 143.052 21.35 142.019 20.05C141.019 18.7167 140.519 16.95 140.519 14.75C140.519 12.6833 141.036 10.8833 142.069 9.35C143.102 7.81666 144.552 6.65 146.419 5.85C148.286 5.01667 150.419 4.6 152.819 4.6C156.419 4.6 159.336 5.48333 161.569 7.25C163.836 8.98333 165.086 11.4167 165.319 14.55H157.619C157.552 13.35 157.036 12.3667 156.069 11.6C155.136 10.8 153.886 10.4 152.319 10.4C150.952 10.4 149.852 10.75 149.019 11.45C148.219 12.15 147.819 13.1667 147.819 14.5C147.819 15.4333 148.119 16.2167 148.719 16.85C149.352 17.45 150.119 17.95 151.019 18.35C151.952 18.7167 153.252 19.15 154.919 19.65C157.186 20.3167 159.036 20.9833 160.469 21.65C161.902 22.3167 163.136 23.3167 164.169 24.65C165.202 25.9833 165.719 27.7333 165.719 29.9C165.719 31.7667 165.236 33.5 164.269 35.1C163.302 36.7 161.886 37.9833 160.019 38.95C158.152 39.8833 155.936 40.35 153.369 40.35Z" fill="white"/>
<path d="M175.338 9C174.105 9 173.071 8.61667 172.238 7.85C171.438 7.05 171.038 6.06666 171.038 4.9C171.038 3.73333 171.438 2.76666 172.238 2C173.071 1.2 174.105 0.799998 175.338 0.799998C176.571 0.799998 177.588 1.2 178.388 2C179.221 2.76666 179.638 3.73333 179.638 4.9C179.638 6.06666 179.221 7.05 178.388 7.85C177.588 8.61667 176.571 9 175.338 9ZM178.788 12.3V40H171.788V12.3H178.788ZM192.104 34.25H204.454V40H184.154V34.35L196.254 18.05H184.204V12.3H204.304V17.95L192.104 34.25ZM216.274 34.25H228.624V40H208.324V34.35L220.424 18.05H208.374V12.3H228.474V17.95L216.274 34.25Z" fill="#FBC400"/>
</svg>
